<svg id="Capa_1" data-name="Capa 1" xmlns="http://www.w3.org/2000/svg" viewBox="0 0 88.7005 85.83174"><defs><style>.cls-1{fill:#fff;}</style></defs><title>Logo_final_simbol</title><path class="cls-1" d="M556.45041,554.91292l-4.522-7.724a.468.468,0,0,0-.4038-.23155l-57.3538-.00982a.468.468,0,0,1-.40087-.70941L509.01645,520.914a.468.468,0,0,1,.40095-.22662h26.15449a.468.468,0,0,0,.40522-.70217l-4.60426-7.96781-13.93-24.14-10.30474-17.85766a.468.468,0,0,0-.81068-.00006l-38.44931,66.60574a.468.468,0,0,0,.40532.702h20.0588a.468.468,0,0,1,.40281.7063l-9.98434,16.87737a.468.468,0,0,0,.40281.70631h76.883A.468.468,0,0,0,556.45041,554.91292Zm-73.57368-26.95487,23.45356-40.61355a.468.468,0,0,1,.80919-.00238L521.17054,511.313a.468.468,0,0,1-.4039.70443H504.40975a.468.468,0,0,0-.40278.22968l-9.59765,16.21973a.468.468,0,0,1-.40437.22968l-10.72452-.03639A.468.468,0,0,1,482.87673,527.95805Z" transform="translate(-467.81474 -469.78564)"/></svg>